# File created by Blade
# Date/Time:  Tue Apr 07 21:25:57 2015
# Frame Rate: 120.000 fps
#------------------------------------------------------
:FULLY-SPECIFIED
:DEGREES
333
root 22.164593 32.521723 3.207678 28.233764 -79.294065 -1.151127
Spine -1.308082 -5.553199 2.811936
Head -3.813405 -5.164494 5.124801
LeftShoulder 1.283852 29.624516 23.493914
LeftArm 77.595146 17.085029 -62.287977
LeftForeArm -3.400875 -0.000000 19.118732
LeftHand 7.828171 -0.000000 -3.452848
LeftHandThumb1 -26.253704 0.000000 33.147579
RightShoulder 6.149188 7.431431 -19.840567
RightArm 33.610106 -27.342690 77.478886
RightForeArm -1.569099 -0.000000 18.191875
RightHand 6.025578 -0.000000 5.748763
RightHandThumb1 -24.326973 -0.000000 -32.862282
LeftUpLeg -45.323296 -8.480840 4.838926
LeftLeg 26.216890 -0.000000 -0.000000
LeftFoot -10.142380 9.048901 -18.361169
LeftToeBase -5.682859 -0.000000 0.000000
RightUpLeg -35.646373 -0.511006 2.058885
RightLeg 5.467083 -0.000000 -0.000000
RightFoot -3.307807 -5.303756 19.818518
RightToeBase 1.111277 -0.000000 -0.000000
334
root 22.134515 32.521166 3.204281 29.124291 -79.342555 -2.140293
Spine -1.383638 -5.380863 2.945284
Head -3.439558 -5.226284 5.228876
LeftShoulder 1.253793 29.756755 23.482969
LeftArm 77.784790 17.242132 -62.125833
LeftForeArm -3.403207 -0.000000 19.515335
LeftHand 7.812339 -0.000000 -3.484880
LeftHandThumb1 -26.253704 0.000000 33.147579
RightShoulder 6.152447 7.547893 -19.815511
RightArm 33.898311 -27.369832 77.371825
RightForeArm -1.582082 0.000000 17.902469
RightHand 6.026845 -0.000000 5.764459
RightHandThumb1 -24.326973 -0.000000 -32.862282
LeftUpLeg -45.571225 -8.665826 5.345085
LeftLeg 27.032045 -0.000000 -0.000000
LeftFoot -10.577289 9.428827 -17.977886
LeftToeBase -5.416890 -0.000000 0.000000
RightUpLeg -35.235755 -0.486060 2.236074
RightLeg 4.904647 -0.000000 -0.000000
RightFoot -3.120505 -5.131000 20.253100
RightToeBase 1.070972 -0.000000 -0.000000
335
root 22.102377 32.524045 3.208909 29.782369 -79.477858 -2.905329
Spine -1.441574 -5.181074 2.997725
Head -3.087585 -5.255483 5.325596
LeftShoulder 1.196890 29.925748 23.425365
LeftArm 77.977216 17.380802 -61.938684
LeftForeArm -3.587786 -0.000000 19.902422
LeftHand 7.849897 -0.000000 -3.338098
LeftHandThumb1 -26.253704 0.000000 33.147579
RightShoulder 6.151952 7.678802 -19.777650
RightArm 34.102188 -27.295593 77.401990
RightForeArm -1.500240 0.000000 17.692543
RightHand 5.872583 -0.000000 5.875025
RightHandThumb1 -24.326973 -0.000000 -32.862282
LeftUpLeg -45.663704 -8.841004 5.802574
LeftLeg 27.531210 -0.000000 -0.000000
LeftFoot -10.932370 9.604607 -17.815993
LeftToeBase -5.498651 -0.000000 0.000000
RightUpLeg -34.926074 -0.648738 2.472522
RightLeg 4.598891 -0.000000 -0.000000
RightFoot -2.951612 -4.724867 20.616075
RightToeBase 0.908279 -0.000000 -0.000000
336
root 22.072461 32.528298 3.217730 30.260715 -79.685557 -3.455376
Spine -1.529110 -4.949521 2.974612
Head -2.748418 -5.280213 5.400902
LeftShoulder 1.148668 30.102614 23.352853
LeftArm 78.107291 17.493719 -61.765465
LeftForeArm -3.519629 -0.000000 20.348347
LeftHand 7.867129 -0.000000 -3.301575
LeftHandThumb1 -26.253704 0.000000 33.147579
RightShoulder 6.108337 7.767747 -19.749838
RightArm 34.329904 -27.227784 77.468773
RightForeArm -1.579928 -0.000000 17.479405
RightHand 5.814369 -0.000000 5.907457
RightHandThumb1 -24.326973 -0.000000 -32.862282
LeftUpLeg -45.743321 -9.012580 6.201538
LeftLeg 27.897787 -0.000000 -0.000000
LeftFoot -11.267822 9.694146 -17.709715
LeftToeBase -5.425768 -0.000000 0.000000
RightUpLeg -34.708818 -0.823603 2.646765
RightLeg 4.388654 -0.000000 -0.000000
RightFoot -2.790080 -4.208123 20.863701
RightToeBase 0.706711 -0.000000 -0.000000
337
root 22.040219 32.534350 3.232074 30.690585 -79.894161 -3.991343
Spine -1.575987 -4.751128 2.958878
Head -2.435761 -5.261175 5.441184
LeftShoulder 1.080462 30.255763 23.238263
LeftArm 78.198463 17.602882 -61.632655
LeftForeArm -3.387105 -0.000000 20.777367
LeftHand 7.823736 -0.000000 -3.487189
LeftHandThumb1 -26.253704 0.000000 33.147579
RightShoulder 6.055200 7.819450 -19.733117
RightArm 34.564252 -27.101975 77.579830
RightForeArm -1.698841 -0.000000 17.322668
RightHand 5.753110 -0.000000 5.990096
RightHandThumb1 -24.326973 -0.000000 -32.862282
LeftUpLeg -45.697840 -9.189235 6.585753
LeftLeg 28.038805 -0.000000 -0.000000
LeftFoot -11.525366 9.632697 -17.728577
LeftToeBase -5.428611 -0.000000 0.000000
RightUpLeg -34.460238 -1.004309 2.815235
RightLeg 4.204830 -0.000000 -0.000000
RightFoot -2.637200 -3.732527 21.154928
RightToeBase 0.506092 -0.000000 -0.000000
338
root 22.006828 32.540167 3.247873 31.228320 -80.063851 -4.642241
Spine -1.623162 -4.612931 2.996015
Head -2.123202 -5.217206 5.445529
LeftShoulder 1.025770 30.438847 23.117406
LeftArm 78.255537 17.683885 -61.560774
LeftForeArm -3.197306 -0.000000 21.215173
LeftHand 7.700447 -0.000000 -3.526653
LeftHandThumb1 -26.253704 0.000000 33.147579
RightShoulder 6.046133 7.872920 -19.751301
RightArm 34.751218 -27.000405 77.692045
RightForeArm -1.806271 -0.000000 17.251728
RightHand 5.718806 -0.000000 6.064849
RightHandThumb1 -24.326973 -0.000000 -32.862282
LeftUpLeg -45.610331 -9.433194 7.030175
LeftLeg 28.035357 -0.000000 -0.000000
LeftFoot -11.744156 9.513822 -17.765820
LeftToeBase -5.615006 -0.000000 0.000000
RightUpLeg -34.219636 -1.185633 3.006748
RightLeg 4.060137 -0.000000 -0.000000
RightFoot -2.524058 -3.332744 21.393296
RightToeBase 0.174401 -0.000000 -0.000000
